<svg width="30" height="30" viewBox="0 0 30 30" fill="none" xmlns="http://www.w3.org/2000/svg">
<path opacity="0.9" d="M24.886 9.65744C24.4996 9.20192 23.817 9.14592 23.3615 9.53236C22.906 9.91879 22.85 10.6013 23.2365 11.0568L24.886 9.65744ZM28 15L28.8248 15.6997C29.1672 15.2961 29.1672 14.7039 28.8248 14.3003L28 15ZM23.2365 18.9432C22.85 19.3987 22.906 20.0812 23.3615 20.4676C23.817 20.8541 24.4996 20.7981 24.886 20.3426L23.2365 18.9432ZM25.6364 16.0816C26.2337 16.0816 26.718 15.5974 26.718 15C26.718 14.4026 26.2337 13.9184 25.6364 13.9184V16.0816ZM13.3455 13.9184C12.7481 13.9184 12.2639 14.4026 12.2639 15C12.2639 15.5974 12.7481 16.0816 13.3455 16.0816V13.9184ZM2 2V0.9184H0.9184V2H2ZM19.0182 2H20.0998V0.9184H19.0182V2ZM2 28H0.9184V29.0816H2V28ZM19.0182 28V29.0816H20.0998V28H19.0182ZM17.9366 9.42857C17.9366 10.0259 18.4208 10.5102 19.0182 10.5102C19.6155 10.5102 20.0998 10.0259 20.0998 9.42857H17.9366ZM20.0998 20.5714C20.0998 19.9741 19.6155 19.4898 19.0182 19.4898C18.4208 19.4898 17.9366 19.9741 17.9366 20.5714H20.0998ZM23.2365 11.0568L27.1752 15.6997L28.8248 14.3003L24.886 9.65744L23.2365 11.0568ZM24.886 20.3426L28.8248 15.6997L27.1752 14.3003L23.2365 18.9432L24.886 20.3426ZM25.6364 13.9184H13.3455V16.0816H25.6364V13.9184ZM2 3.0816H19.0182V0.9184H2V3.0816ZM2 29.0816H19.0182V26.9184H2V29.0816ZM17.9366 2V9.42857H20.0998V2H17.9366ZM17.9366 20.5714V28H20.0998V20.5714H17.9366ZM0.9184 2V28H3.0816V2H0.9184Z" fill="#E1E1E1"/>
</svg>
