<svg width="104" height="104" viewBox="0 0 104 104" fill="none" xmlns="http://www.w3.org/2000/svg">
<path d="M104 52C104 80.7188 80.7188 104 52 104C23.2812 104 0 80.7188 0 52C0 23.2812 23.2812 0 52 0C80.7188 0 104 23.2812 104 52ZM22.9138 52C22.9138 68.0639 35.9361 81.0862 52 81.0862C68.0639 81.0862 81.0862 68.0639 81.0862 52C81.0862 35.9361 68.0639 22.9138 52 22.9138C35.9361 22.9138 22.9138 35.9361 22.9138 52Z" fill="#F9B146"/>
<path d="M104 52C104 42.9539 101.64 34.0643 97.1535 26.2093C92.6669 18.3542 86.2087 11.8055 78.4169 7.20995C70.6251 2.61439 61.7692 0.130986 52.724 0.00504011C43.6788 -0.120906 34.7572 2.11496 26.8404 6.4918L37.927 26.545C42.3552 24.0968 47.3455 22.8461 52.405 22.9166C57.4644 22.987 62.4179 24.3761 66.7763 26.9467C71.1347 29.5172 74.747 33.1802 77.2566 37.5739C79.7662 41.9677 81.0862 46.9401 81.0862 52H104Z" fill="#9E0BA2"/>
<path d="M104 52C104 64.2956 99.6431 76.1934 91.7027 85.5812C83.7623 94.969 72.7522 101.239 60.6271 103.279L56.8256 80.6832C63.6078 79.5421 69.7663 76.0347 74.2077 70.7837C78.6492 65.5326 81.0862 58.8775 81.0862 52H104Z" fill="#1371FF"/>
</svg>
