<svg width="17" height="12" viewBox="0 0 17 12" fill="none" xmlns="http://www.w3.org/2000/svg">
<path d="M17 10.1538C17 10.6435 16.801 11.1131 16.4468 11.4593C16.0925 11.8055 15.6121 12 15.1111 12H1.88889C1.38792 12 0.907478 11.8055 0.553243 11.4593C0.199007 11.1131 0 10.6435 0 10.1538V1.84615C0 1.35652 0.199007 0.886947 0.553243 0.540726C0.907478 0.194505 1.38792 0 1.88889 0H15.1111C15.6121 0 16.0925 0.194505 16.4468 0.540726C16.801 0.886947 17 1.35652 17 1.84615V10.1538Z" fill="#009B3A"/>
<path d="M15.4549 6L8.5 11.1342L1.54511 6L8.5 0.865385L15.4549 6Z" fill="#FEDF01"/>
<path d="M8.48867 8.94554C10.1729 8.94554 11.5383 7.61107 11.5383 5.96492C11.5383 4.31877 10.1729 2.98431 8.48867 2.98431C6.80441 2.98431 5.43906 4.31877 5.43906 5.96492C5.43906 7.61107 6.80441 8.94554 8.48867 8.94554Z" fill="#002776"/>
<path d="M5.79747 4.56323C5.63908 4.85496 5.53182 5.17055 5.48014 5.49692C7.36667 5.36308 9.92706 6.36969 11.0259 7.61769C11.2157 7.33892 11.3565 7.02692 11.4429 6.69277C10.0867 5.39677 7.70431 4.55585 5.79747 4.56323Z" fill="#CBE9D4"/>
<path d="M5.66667 6.10754H6.13889V6.56908H5.66667V6.10754ZM6.13889 7.03062H6.61111V7.49215H6.13889V7.03062Z" fill="#88C9F9"/>
<path d="M7.08333 6.10754H7.55556V6.56908H7.08333V6.10754ZM8.02778 6.56908H8.5V7.03062H8.02778V6.56908ZM9.91667 7.49215H10.3889V7.95369H9.91667V7.49215ZM8.5 7.95369H8.97222V8.41523H8.5V7.95369ZM9.91667 5.18446H10.3889V5.646H9.91667V5.18446Z" fill="#55ACEE"/>
<path d="M8.97222 7.03062H9.44444V7.49215H8.97222V7.03062Z" fill="#3B88C3"/>
</svg>
