<svg width="17" height="18" viewBox="0 0 17 18" fill="none" xmlns="http://www.w3.org/2000/svg">
<path fill-rule="evenodd" clip-rule="evenodd" d="M11.6875 16.4375C12.8147 16.4375 13.8957 15.9897 14.6927 15.1927C15.4897 14.3957 15.9375 13.3147 15.9375 12.1875C15.9375 11.0603 15.4897 9.97933 14.6927 9.1823C13.8957 8.38527 12.8147 7.9375 11.6875 7.9375C10.5603 7.9375 9.47933 8.38527 8.6823 9.1823C7.88527 9.97933 7.4375 11.0603 7.4375 12.1875C7.4375 13.3147 7.88527 14.3957 8.6823 15.1927C9.47933 15.9897 10.5603 16.4375 11.6875 16.4375ZM17 12.1875C17 13.5965 16.4403 14.9477 15.444 15.944C14.4477 16.9403 13.0965 17.5 11.6875 17.5C10.2785 17.5 8.92728 16.9403 7.93099 15.944C6.93471 14.9477 6.375 13.5965 6.375 12.1875C6.375 10.7785 6.93471 9.42728 7.93099 8.43099C8.92728 7.43471 10.2785 6.875 11.6875 6.875C13.0965 6.875 14.4477 7.43471 15.444 8.43099C16.4403 9.42728 17 10.7785 17 12.1875Z" fill="white"/>
<path d="M10.0279 13.1905C10.0778 13.8238 10.5782 14.3168 11.4761 14.3763V14.8438H11.8745V14.3731C12.8042 14.3083 13.3471 13.811 13.3471 13.0906C13.3471 12.434 12.9327 12.0961 12.189 11.9219L11.8745 11.8475V10.5725C12.274 10.6182 12.5269 10.836 12.5874 11.1377H13.2866C13.2366 10.5268 12.7128 10.0498 11.8745 9.99769V9.53125H11.4761V10.0094C10.6824 10.0869 10.1426 10.564 10.1426 11.2397C10.1426 11.8369 10.5443 12.2172 11.2126 12.3724L11.4761 12.4372V13.7887C11.0681 13.7271 10.7971 13.5018 10.7366 13.1905H10.0279ZM11.4729 11.7519C11.0808 11.6616 10.8683 11.4756 10.8683 11.1972C10.8683 10.8849 11.0978 10.6511 11.4761 10.5831V11.7519H11.4729ZM11.9319 12.5445C12.4089 12.655 12.6278 12.8335 12.6278 13.1491C12.6278 13.5092 12.3547 13.7557 11.8745 13.8014V12.5318L11.9319 12.5445Z" fill="white"/>
<path d="M1.0625 0.5C0.780707 0.5 0.510456 0.611942 0.311199 0.811199C0.111942 1.01046 0 1.28071 0 1.5625V10.0625C0 10.3443 0.111942 10.6145 0.311199 10.8138C0.510456 11.0131 0.780707 11.125 1.0625 11.125H5.40069C5.46231 10.7595 5.55475 10.4046 5.67481 10.0625H3.1875C3.1875 9.49891 2.96362 8.95841 2.5651 8.5599C2.16659 8.16138 1.62609 7.9375 1.0625 7.9375V3.6875C1.62609 3.6875 2.16659 3.46362 2.5651 3.0651C2.96362 2.66659 3.1875 2.12609 3.1875 1.5625H13.8125C13.8125 2.12609 14.0364 2.66659 14.4349 3.0651C14.8334 3.46362 15.3739 3.6875 15.9375 3.6875V7.436C16.3412 7.79725 16.6993 8.2095 17 8.66213V1.5625C17 1.28071 16.8881 1.01046 16.6888 0.811199C16.4895 0.611942 16.2193 0.5 15.9375 0.5H1.0625Z" fill="white"/>
<path d="M10.6229 5.90069L10.625 5.8125C10.6248 5.44657 10.5301 5.08689 10.35 4.7683C10.17 4.44972 9.91075 4.18303 9.59739 3.99405C9.28403 3.80507 8.92718 3.70022 8.5614 3.68965C8.19561 3.67908 7.8333 3.76314 7.50955 3.9337C7.18579 4.10426 6.91157 4.35554 6.71344 4.66319C6.5153 4.97085 6.39997 5.32445 6.37862 5.68976C6.35727 6.05507 6.43061 6.41971 6.59155 6.74835C6.75249 7.07699 6.99557 7.35851 7.29725 7.56563C8.21499 6.69148 9.37313 6.11167 10.6229 5.90069Z" fill="white"/>
</svg>
