<svg width="24" height="28" viewBox="0 0 24 28" fill="none" xmlns="http://www.w3.org/2000/svg">
<path d="M14.2167 25.3852C14.0065 25.7685 13.7049 26.0867 13.342 26.3078C12.9792 26.529 12.5677 26.6454 12.1489 26.6454C11.7302 26.6454 11.3187 26.529 10.9558 26.3078C10.5929 26.0867 10.2913 25.7685 10.0812 25.3852M19.3203 8.94316C19.3203 6.93054 18.5648 5.00035 17.2199 3.57721C15.875 2.15407 14.0509 1.35455 12.1489 1.35455C10.247 1.35455 8.4229 2.15407 7.07801 3.57721C5.73312 5.00035 4.97756 6.93054 4.97756 8.94316C4.97756 17.7965 1.39188 20.3261 1.39188 20.3261H22.906C22.906 20.3261 19.3203 17.7965 19.3203 8.94316Z" stroke="white" stroke-width="2.03732" stroke-linecap="round" stroke-linejoin="round"/>
</svg>
