<svg width="15" height="15" viewBox="0 0 15 15" fill="none" xmlns="http://www.w3.org/2000/svg">
<path d="M7.5 0C7.63924 7.78685e-05 7.77571 0.0407475 7.89413 0.117454C8.01255 0.194161 8.10824 0.303875 8.17048 0.434311L10.1054 4.48526L14.3578 5.13241C14.4963 5.15347 14.6264 5.21471 14.7335 5.3092C14.8405 5.40368 14.9201 5.52764 14.9633 5.66706C15.0066 5.80647 15.0117 5.95577 14.9781 6.09807C14.9445 6.24037 14.8736 6.36998 14.7733 6.47225L11.6781 9.63259L12.3741 14.0888C12.3965 14.233 12.38 14.381 12.3264 14.5159C12.2729 14.6509 12.1844 14.7675 12.071 14.8527C11.9577 14.9379 11.8238 14.9883 11.6846 14.9982C11.5453 15.0081 11.4062 14.9771 11.2829 14.9087L7.5 12.8071L3.71711 14.9087C3.59377 14.9771 3.45466 15.0081 3.31542 14.9982C3.17619 14.9883 3.04235 14.9379 2.92896 14.8527C2.81557 14.7675 2.72713 14.6509 2.67359 14.5159C2.62005 14.381 2.60353 14.233 2.62589 14.0888L3.32187 9.63259L0.226711 6.47225C0.126436 6.36998 0.0554938 6.24037 0.0219085 6.09807C-0.0116767 5.95577 -0.00656406 5.80647 0.0366681 5.66706C0.0799003 5.52764 0.159527 5.40368 0.266539 5.3092C0.373551 5.21471 0.503678 5.15347 0.642199 5.13241L4.89458 4.48526L6.82952 0.434311C6.89176 0.303875 6.98745 0.194161 7.10587 0.117454C7.22429 0.0407475 7.36076 7.78685e-05 7.5 0ZM7.5 2.54146L6.06154 5.55415C6.00756 5.66745 5.92821 5.7654 5.83027 5.83966C5.73233 5.91392 5.6187 5.96227 5.49906 5.98061L2.36115 6.45811L4.64858 8.79302C4.73503 8.88122 4.79987 8.98996 4.8376 9.11C4.87534 9.23005 4.88485 9.35786 4.86533 9.48258L4.35009 12.7788L7.14826 11.2238C7.25658 11.1635 7.37735 11.132 7.5 11.132C7.62265 11.132 7.74342 11.1635 7.85174 11.2238L10.6499 12.7788L10.1347 9.48258C10.1153 9.35798 10.1249 9.23033 10.1626 9.11043C10.2003 8.99053 10.2651 8.88192 10.3514 8.79381L12.6389 6.45811L9.50169 5.98061C9.38205 5.96227 9.26842 5.91392 9.17048 5.83966C9.07254 5.7654 8.99319 5.66745 8.93921 5.55415L7.5 2.54146Z" fill="#00BCFF"/>
</svg>
