<svg width="16" height="18" viewBox="0 0 16 18" fill="none" xmlns="http://www.w3.org/2000/svg">
<path d="M15.0844 4.37397L8 0.5L0.915556 4.37397L5.42222 6.83127C6.07111 6.16667 6.98667 5.74691 8 5.74691C9.01333 5.74691 9.92889 6.16667 10.5778 6.83127L15.0844 4.37397ZM6.22222 9.24486C6.22222 8.28292 7.02222 7.49588 8 7.49588C8.97778 7.49588 9.77778 8.28292 9.77778 9.24486C9.77778 10.2068 8.97778 10.9938 8 10.9938C7.02222 10.9938 6.22222 10.2068 6.22222 9.24486ZM7.11111 17.5L0 13.6173V5.86934L4.56 8.36162C4.48 8.64146 4.44444 8.93879 4.44444 9.24486C4.44444 10.8714 5.57333 12.2443 7.11111 12.6291V17.5ZM8.88889 17.5V12.6291C10.4267 12.2443 11.5556 10.8714 11.5556 9.24486C11.5556 8.93879 11.52 8.64146 11.44 8.36162L16 5.86934V13.6173L8.88889 17.5Z" fill="white" fill-opacity="0.87"/>
</svg>
