<svg width="19" height="18" viewBox="0 0 19 18" fill="none" xmlns="http://www.w3.org/2000/svg">
<path d="M6.83333 17V11.6667C6.83333 11.1952 7.02063 10.743 7.35403 10.4096C7.68743 10.0762 8.13962 9.88889 8.61111 9.88889H10.3889C10.8604 9.88889 11.3126 10.0762 11.646 10.4096C11.9794 10.743 12.1667 11.1952 12.1667 11.6667V17M3.27778 9H1.5L9.5 1L17.5 9H15.7222V15.2222C15.7222 15.6937 15.5349 16.1459 15.2015 16.4793C14.8681 16.8127 14.4159 17 13.9444 17H5.05556C4.58406 17 4.13187 16.8127 3.79848 16.4793C3.46508 16.1459 3.27778 15.6937 3.27778 15.2222L3.27778 9Z" stroke="#E1E1E1" stroke-width="2" stroke-linecap="round" stroke-linejoin="round"/>
</svg>
